<svg width="284" height="284" viewBox="0 0 284 284" fill="none" xmlns="http://www.w3.org/2000/svg">
<path d="M27.25 117.55C27.8333 117.483 28.55 117.425 29.4 117.375C30.2667 117.325 31.2667 117.3 32.4 117.3C34.55 117.3 36.1917 117.7 37.325 118.5C38.475 119.3 39.05 120.4 39.05 121.8C39.05 122.733 38.8083 123.517 38.325 124.15C37.8417 124.783 37.125 125.308 36.175 125.725C37.3083 126.125 38.1667 126.675 38.75 127.375C39.3333 128.075 39.625 128.95 39.625 130C39.625 131.6 39 132.867 37.75 133.8C36.5167 134.733 34.7 135.2 32.3 135.2C31.2833 135.2 30.3167 135.175 29.4 135.125C28.5 135.092 27.7833 135.033 27.25 134.95V117.55ZM32.475 133.225C33.975 133.225 35.1333 132.958 35.95 132.425C36.7833 131.892 37.2 131.117 37.2 130.1C37.2 129.1 36.7917 128.317 35.975 127.75C35.1583 127.183 33.9917 126.9 32.475 126.9H29.625V133.075C30.4917 133.175 31.4417 133.225 32.475 133.225ZM32.375 125.05C33.6917 125.05 34.7333 124.783 35.5 124.25C36.2833 123.7 36.675 122.983 36.675 122.1C36.675 121.15 36.2917 120.433 35.525 119.95C34.7583 119.467 33.7083 119.225 32.375 119.225C31.825 119.225 31.325 119.242 30.875 119.275C30.425 119.292 30.0083 119.317 29.625 119.35V125.05H32.375ZM54.3721 135.125C53.5721 135.125 52.9387 134.967 52.4721 134.65C52.0054 134.333 51.6804 133.875 51.4971 133.275C50.9137 133.875 50.2387 134.367 49.4721 134.75C48.7221 135.117 47.8971 135.3 46.9971 135.3C46.4304 135.3 45.8804 135.208 45.3471 135.025C44.8304 134.858 44.3637 134.583 43.9471 134.2C43.5471 133.817 43.2221 133.317 42.9721 132.7C42.7387 132.083 42.6221 131.333 42.6221 130.45V122H44.8721V130.15C44.8721 131.167 45.0804 131.95 45.4971 132.5C45.9304 133.033 46.5721 133.3 47.4221 133.3C48.1221 133.3 48.7887 133.167 49.4221 132.9C50.0554 132.617 50.6221 132.242 51.1221 131.775V122H53.3721V131.625C53.3721 131.992 53.4137 132.292 53.4971 132.525C53.5804 132.742 53.6887 132.917 53.8221 133.05C53.9554 133.167 54.1137 133.25 54.2971 133.3C54.4804 133.35 54.6637 133.375 54.8471 133.375L54.3721 135.125ZM60.085 135H57.835V122H60.085V135ZM58.96 119.775C58.5266 119.775 58.1516 119.625 57.835 119.325C57.535 119.008 57.385 118.633 57.385 118.2C57.385 117.717 57.5266 117.333 57.81 117.05C58.0933 116.767 58.4766 116.625 58.96 116.625C59.3933 116.625 59.76 116.783 60.06 117.1C60.3766 117.4 60.535 117.767 60.535 118.2C60.535 118.683 60.3933 119.067 60.11 119.35C59.8266 119.633 59.4433 119.775 58.96 119.775ZM66.21 130.7C66.21 131.6 66.3933 132.267 66.76 132.7C67.1433 133.133 67.6683 133.35 68.335 133.35C68.6516 133.35 68.96 133.317 69.26 133.25C69.56 133.167 69.8266 133.075 70.06 132.975L70.61 134.8C70.31 134.933 69.935 135.05 69.485 135.15C69.0516 135.25 68.5683 135.3 68.035 135.3C67.4516 135.3 66.91 135.217 66.41 135.05C65.9266 134.883 65.5016 134.625 65.135 134.275C64.7683 133.925 64.4766 133.475 64.26 132.925C64.06 132.375 63.96 131.708 63.96 130.925V116.5H66.21V130.7ZM77.2863 135.3C76.4863 135.3 75.728 135.142 75.0113 134.825C74.3113 134.508 73.6947 134.058 73.1613 133.475C72.6447 132.892 72.2363 132.192 71.9363 131.375C71.6363 130.542 71.4863 129.608 71.4863 128.575C71.4863 127.592 71.6363 126.683 71.9363 125.85C72.253 125 72.6697 124.275 73.1863 123.675C73.7197 123.058 74.3363 122.575 75.0363 122.225C75.7363 121.875 76.478 121.7 77.2613 121.7C78.128 121.7 78.8697 121.875 79.4863 122.225C80.1197 122.575 80.6113 122.933 80.9613 123.3V116.5H83.2113V131.85C83.2113 132.483 83.3613 132.9 83.6613 133.1C83.978 133.283 84.3197 133.375 84.6863 133.375L84.2113 135.125C82.628 135.125 81.6613 134.492 81.3113 133.225C80.928 133.758 80.4113 134.242 79.7613 134.675C79.1113 135.092 78.2863 135.3 77.2863 135.3ZM77.7863 133.3C78.403 133.3 78.9863 133.158 79.5363 132.875C80.103 132.575 80.578 132.192 80.9613 131.725V125.275C80.6447 124.875 80.203 124.508 79.6363 124.175C79.0863 123.825 78.4613 123.65 77.7613 123.65C77.1613 123.65 76.6113 123.775 76.1113 124.025C75.628 124.275 75.2113 124.617 74.8613 125.05C74.5113 125.483 74.2447 126 74.0613 126.6C73.878 127.183 73.7863 127.817 73.7863 128.5C73.7863 129.2 73.8863 129.842 74.0863 130.425C74.2863 131.008 74.5613 131.517 74.9113 131.95C75.278 132.367 75.703 132.7 76.1863 132.95C76.6863 133.183 77.2197 133.3 77.7863 133.3ZM93.5635 118.075L95.9135 117.325L99.8635 132.475L103.588 119.325H106.563L110.263 132.475L114.188 117.4L116.388 118.075L111.663 135H108.713L105.013 121.85L101.263 135H98.3135L93.5635 118.075ZM121.022 135H118.772V122H121.022V135ZM119.897 119.775C119.464 119.775 119.089 119.625 118.772 119.325C118.472 119.008 118.322 118.633 118.322 118.2C118.322 117.717 118.464 117.333 118.747 117.05C119.031 116.767 119.414 116.625 119.897 116.625C120.331 116.625 120.697 116.783 120.997 117.1C121.314 117.4 121.472 117.767 121.472 118.2C121.472 118.683 121.331 119.067 121.047 119.35C120.764 119.633 120.381 119.775 119.897 119.775ZM126.047 118.375H127.772V122.475H131.372V124.425H127.772V130.7C127.772 131.183 127.822 131.592 127.922 131.925C128.039 132.258 128.189 132.525 128.372 132.725C128.556 132.925 128.772 133.075 129.022 133.175C129.289 133.258 129.564 133.3 129.847 133.3C130.264 133.3 130.656 133.233 131.022 133.1C131.389 132.967 131.739 132.808 132.072 132.625L132.697 134.425C132.364 134.625 131.914 134.817 131.347 135C130.781 135.2 130.189 135.3 129.572 135.3C128.322 135.3 127.331 134.892 126.597 134.075C125.881 133.258 125.522 132.075 125.522 130.525V124.425H123.272V122.475H125.572L126.047 118.375ZM137.209 124.075C137.676 123.392 138.259 122.825 138.959 122.375C139.676 121.925 140.526 121.7 141.509 121.7C142.976 121.7 144.067 122.142 144.784 123.025C145.517 123.908 145.884 125.075 145.884 126.525V135H143.634V126.775C143.634 125.825 143.417 125.075 142.984 124.525C142.567 123.958 141.959 123.675 141.159 123.675C140.776 123.675 140.392 123.75 140.009 123.9C139.642 124.033 139.292 124.225 138.959 124.475C138.626 124.725 138.309 125.017 138.009 125.35C137.709 125.683 137.442 126.033 137.209 126.4V135H134.959V116.5H137.209V124.075ZM167.699 135.3L165.524 130.55C164.974 129.367 164.282 128.525 163.449 128.025C162.616 127.525 161.549 127.275 160.249 127.275H159.874V135H157.499V117.55C158.399 117.467 159.241 117.408 160.024 117.375C160.824 117.325 161.691 117.3 162.624 117.3C163.691 117.3 164.624 117.417 165.424 117.65C166.224 117.867 166.891 118.183 167.424 118.6C167.957 119.017 168.357 119.508 168.624 120.075C168.907 120.642 169.049 121.267 169.049 121.95C169.049 123.167 168.682 124.15 167.949 124.9C167.232 125.633 166.191 126.183 164.824 126.55C165.157 126.7 165.466 126.875 165.749 127.075C166.032 127.258 166.299 127.492 166.549 127.775C166.799 128.042 167.041 128.367 167.274 128.75C167.524 129.133 167.774 129.6 168.024 130.15L169.924 134.25L167.699 135.3ZM162.624 119.3C162.057 119.3 161.549 119.308 161.099 119.325C160.649 119.342 160.241 119.367 159.874 119.4V125.275H162.624C163.824 125.275 164.799 125.008 165.549 124.475C166.299 123.942 166.674 123.175 166.674 122.175C166.674 121.342 166.324 120.658 165.624 120.125C164.924 119.575 163.924 119.3 162.624 119.3ZM174.104 129.425C174.254 130.642 174.679 131.592 175.379 132.275C176.079 132.958 177.004 133.3 178.154 133.3C178.904 133.3 179.579 133.225 180.179 133.075C180.779 132.908 181.354 132.7 181.904 132.45L182.429 134.375C181.829 134.658 181.154 134.883 180.404 135.05C179.654 135.217 178.812 135.3 177.879 135.3C176.945 135.3 176.104 135.15 175.354 134.85C174.604 134.533 173.962 134.092 173.429 133.525C172.912 132.942 172.512 132.233 172.229 131.4C171.945 130.55 171.804 129.583 171.804 128.5C171.804 127.533 171.945 126.633 172.229 125.8C172.512 124.967 172.912 124.25 173.429 123.65C173.945 123.033 174.562 122.558 175.279 122.225C175.995 121.875 176.795 121.7 177.679 121.7C178.612 121.7 179.429 121.858 180.129 122.175C180.829 122.492 181.412 122.925 181.879 123.475C182.345 124.025 182.695 124.667 182.929 125.4C183.162 126.133 183.279 126.908 183.279 127.725C183.279 128.308 183.254 128.875 183.204 129.425H174.104ZM177.629 123.65C176.645 123.65 175.837 123.983 175.204 124.65C174.587 125.317 174.212 126.3 174.079 127.6H181.204C181.204 126.333 180.887 125.358 180.254 124.675C179.62 123.992 178.745 123.65 177.629 123.65ZM185.402 128.575C185.402 127.608 185.552 126.708 185.852 125.875C186.152 125.025 186.569 124.292 187.102 123.675C187.652 123.058 188.302 122.575 189.052 122.225C189.819 121.875 190.652 121.7 191.552 121.7C192.302 121.7 192.977 121.833 193.577 122.1C194.194 122.35 194.727 122.667 195.177 123.05V122H197.227V131.85C197.227 132.483 197.377 132.9 197.677 133.1C197.994 133.283 198.336 133.375 198.702 133.375L198.227 135.125C196.627 135.125 195.661 134.475 195.327 133.175C195.127 133.442 194.894 133.708 194.627 133.975C194.377 134.225 194.086 134.45 193.752 134.65C193.419 134.85 193.044 135.008 192.627 135.125C192.211 135.242 191.752 135.3 191.252 135.3C190.436 135.3 189.669 135.142 188.952 134.825C188.252 134.508 187.636 134.058 187.102 133.475C186.586 132.892 186.169 132.192 185.852 131.375C185.552 130.542 185.402 129.608 185.402 128.575ZM191.752 133.3C192.386 133.3 192.986 133.15 193.552 132.85C194.119 132.55 194.594 132.158 194.977 131.675V124.7C194.527 124.383 194.027 124.133 193.477 123.95C192.944 123.75 192.377 123.65 191.777 123.65C191.177 123.65 190.627 123.767 190.127 124C189.627 124.233 189.194 124.567 188.827 125C188.477 125.417 188.202 125.925 188.002 126.525C187.802 127.125 187.702 127.783 187.702 128.5C187.702 129.2 187.802 129.85 188.002 130.45C188.202 131.033 188.486 131.542 188.852 131.975C189.219 132.392 189.644 132.717 190.127 132.95C190.627 133.183 191.169 133.3 191.752 133.3ZM209.763 124.375C209.28 124.142 208.83 123.975 208.413 123.875C207.996 123.758 207.53 123.7 207.013 123.7C206.43 123.7 205.88 123.808 205.363 124.025C204.863 124.242 204.43 124.558 204.063 124.975C203.696 125.375 203.405 125.867 203.188 126.45C202.988 127.033 202.888 127.7 202.888 128.45C202.888 129.133 202.98 129.767 203.163 130.35C203.363 130.933 203.638 131.45 203.988 131.9C204.338 132.333 204.755 132.675 205.238 132.925C205.721 133.175 206.263 133.3 206.863 133.3C207.496 133.3 208.038 133.233 208.488 133.1C208.938 132.967 209.421 132.758 209.938 132.475L210.638 134.375C210.105 134.658 209.521 134.883 208.888 135.05C208.255 135.217 207.53 135.3 206.713 135.3C205.78 135.3 204.938 135.133 204.188 134.8C203.438 134.467 202.796 134 202.263 133.4C201.73 132.8 201.313 132.083 201.013 131.25C200.73 130.417 200.588 129.5 200.588 128.5C200.588 127.567 200.73 126.692 201.013 125.875C201.313 125.042 201.738 124.317 202.288 123.7C202.838 123.083 203.496 122.6 204.263 122.25C205.046 121.883 205.921 121.7 206.888 121.7C207.638 121.7 208.288 121.767 208.838 121.9C209.388 122.033 209.921 122.225 210.438 122.475L209.763 124.375ZM214.28 118.375H216.005V122.475H219.605V124.425H216.005V130.7C216.005 131.183 216.055 131.592 216.155 131.925C216.272 132.258 216.422 132.525 216.605 132.725C216.788 132.925 217.005 133.075 217.255 133.175C217.522 133.258 217.797 133.3 218.08 133.3C218.497 133.3 218.888 133.233 219.255 133.1C219.622 132.967 219.972 132.808 220.305 132.625L220.93 134.425C220.597 134.625 220.147 134.817 219.58 135C219.013 135.2 218.422 135.3 217.805 135.3C216.555 135.3 215.563 134.892 214.83 134.075C214.113 133.258 213.755 132.075 213.755 130.525V124.425H211.505V122.475H213.805L214.28 118.375Z" fill="black"/>
<g clip-path="url(#clip0)">
<path d="M241 128.008C242.677 128.008 244.036 126.649 244.036 124.972C244.036 123.295 242.677 121.936 241 121.936C239.323 121.936 237.964 123.295 237.964 124.972C237.964 126.649 239.323 128.008 241 128.008Z" fill="#00D8FF"/>
<path fill-rule="evenodd" clip-rule="evenodd" d="M241 118.799C245.077 118.799 248.863 119.384 251.719 120.367C255.159 121.551 257.274 123.346 257.274 124.972C257.274 126.666 255.032 128.573 251.338 129.797C248.545 130.722 244.87 131.205 241 131.205C237.033 131.205 233.276 130.752 230.452 129.787C226.878 128.565 224.726 126.634 224.726 124.972C224.726 123.36 226.745 121.578 230.137 120.396C233.003 119.396 236.883 118.799 241 118.799H241Z" stroke="#00D8FF" stroke-width="2.73408"/>
<path fill-rule="evenodd" clip-rule="evenodd" d="M235.626 121.903C237.663 118.372 240.061 115.384 242.339 113.401C245.084 111.013 247.696 110.077 249.104 110.889C250.571 111.736 251.104 114.63 250.318 118.442C249.725 121.324 248.307 124.749 246.374 128.101C244.392 131.538 242.122 134.566 239.875 136.53C237.032 139.015 234.283 139.915 232.844 139.085C231.447 138.28 230.913 135.64 231.583 132.111C232.149 129.129 233.57 125.469 235.626 121.903L235.626 121.903Z" stroke="#00D8FF" stroke-width="2.73408"/>
<path fill-rule="evenodd" clip-rule="evenodd" d="M235.631 128.11C233.589 124.583 232.199 121.012 231.618 118.048C230.92 114.478 231.414 111.748 232.821 110.933C234.287 110.085 237.06 111.069 239.97 113.653C242.171 115.607 244.43 118.545 246.369 121.894C248.356 125.328 249.846 128.806 250.426 131.734C251.159 135.438 250.566 138.269 249.127 139.101C247.732 139.909 245.178 139.054 242.456 136.711C240.155 134.731 237.694 131.672 235.631 128.11V128.11Z" stroke="#00D8FF" stroke-width="2.73408"/>
</g>
<defs>
<clipPath id="clip0">
<rect width="34" height="34" fill="white" transform="translate(224 108)"/>
</clipPath>
</defs>
</svg>
