<svg width="284" height="284" viewBox="0 0 284 284" fill="none" xmlns="http://www.w3.org/2000/svg">
<g clip-path="url(#clip0)">
<path d="M10.2969 141.61C10.1705 142.238 10.1011 142.885 10.1011 143.543C10.1011 149.733 15.9005 154.747 23.0554 154.747C30.2095 154.747 36.0097 149.733 36.0097 143.543C36.0097 142.885 35.9395 142.238 35.8132 141.61C33.1238 138.853 28.4174 137.021 23.0554 137.021C17.6927 137.021 12.9855 138.853 10.2969 141.61ZM29.1916 144.521C29.1916 147.911 26.4446 150.656 23.0554 150.656C19.6668 150.656 16.9192 147.911 16.9192 144.521C16.9192 143.672 17.0914 142.864 17.4038 142.128C17.7524 143.126 18.7009 143.839 19.8168 143.839C21.2299 143.839 22.3735 142.696 22.3735 141.282C22.3735 140.166 21.659 139.218 20.6626 138.868C21.3979 138.557 22.2068 138.384 23.0554 138.384C26.4439 138.384 29.1916 141.133 29.1916 144.521Z" fill="black"/>
<path d="M23.0553 118.391C8.28033 123.793 -2.29919 140.645 0.429714 157.666C0.429714 157.666 9.25941 165.609 23.0546 165.609C36.8498 165.609 45.6795 157.666 45.6795 157.666C48.4091 140.645 37.8295 123.793 23.0553 118.391ZM42.5409 155.771C42.5409 155.771 39.3023 158.519 34.4167 160.045C34.2306 160.104 34.0132 160.108 33.8188 159.994C33.5334 159.828 33.457 159.493 33.6265 159.2C33.6542 159.153 33.7334 159.058 33.8091 158.996C34.9819 158.031 35.963 156.83 36.7671 155.437C38.2066 152.943 38.7336 150.175 38.4517 147.514L38.4496 147.508C37.6136 151.809 34.9888 155.738 30.8969 158.102C22.1977 163.123 11.2342 161.804 3.57107 155.772C3.57107 155.772 2.81004 151.593 3.93076 146.599C3.97312 146.409 4.07797 146.218 4.27448 146.108C4.56125 145.943 4.88831 146.043 5.05704 146.337C5.08551 146.384 5.12787 146.501 5.14384 146.597C5.39173 148.095 5.94098 149.544 6.74576 150.939C8.1859 153.432 10.3204 155.272 12.7639 156.359C11.487 155.249 10.3683 153.911 9.47466 152.361C7.96787 149.752 7.29779 146.891 7.37834 144.085C7.56652 134.222 14.1298 125.59 23.0546 122.021C23.0546 122.021 27.0535 123.453 30.8191 126.92C30.9628 127.052 31.0739 127.239 31.0732 127.464C31.0712 127.794 30.8219 128.028 30.4823 128.028C30.4268 128.028 30.3053 128.006 30.2129 127.973C28.7915 127.438 27.2618 127.188 25.6522 127.188C22.7727 127.188 20.1111 128.117 17.9495 129.691L17.9468 129.694C22.4727 128.128 27.4007 128.757 31.3447 131.207C39.7432 136.314 43.9095 146.286 42.5409 155.771Z" fill="black"/>
<path d="M62.2141 129.376H55.7133V156.128H62.2141V129.376Z" fill="black"/>
<path d="M88.5899 130.38L88.1289 136.042C86.3659 134.924 84.2418 134.365 81.7538 134.365C79.2659 134.365 77.1827 135.141 75.5051 136.692C73.8275 138.243 72.9901 140.263 72.9901 142.751C72.9901 145.241 73.8414 147.252 75.5482 148.79C77.2529 150.328 79.3902 151.096 81.9635 151.096C84.7313 151.096 86.9255 150.566 88.5462 149.503L88.0011 155.332C86.3791 156.283 84.0446 156.759 80.999 156.759C79.2096 156.759 77.4549 156.45 75.735 155.835C74.0171 155.221 72.4575 154.347 71.0597 153.215C69.6626 152.082 68.5363 150.607 67.685 148.79C66.8317 146.973 66.4053 144.962 66.4053 142.752C66.4053 139.817 67.1455 137.259 68.6287 135.078C70.1098 132.898 71.9332 131.298 74.1004 130.277C76.2655 129.257 78.5659 128.746 80.999 128.746C84.1855 128.746 86.7158 129.29 88.5899 130.38Z" fill="black"/>
<path d="M120.08 142.71C120.08 146.875 118.647 150.256 115.782 152.857C112.916 155.457 109.541 156.758 105.656 156.758C101.798 156.758 98.4348 155.457 95.5698 152.857C92.7048 150.256 91.2723 146.875 91.2723 142.71C91.2723 138.6 92.7048 135.245 95.5698 132.645C98.4348 130.046 101.798 128.746 105.656 128.746C108.144 128.746 110.477 129.305 112.658 130.423C114.839 131.541 116.62 133.184 118.004 135.351C119.388 137.516 120.08 139.97 120.08 142.71ZM113.496 142.71C113.496 140.306 112.715 138.326 111.148 136.776C109.582 135.225 107.753 134.448 105.656 134.448C103.559 134.448 101.735 135.224 100.184 136.776C98.6306 138.326 97.8557 140.306 97.8557 142.71C97.8557 145.141 98.6306 147.133 100.184 148.685C101.735 150.235 103.559 151.012 105.656 151.012C107.753 151.012 109.582 150.236 111.148 148.685C112.715 147.134 113.496 145.141 113.496 142.71Z" fill="black"/>
<path d="M148.973 156.422H145.702L135.302 145.016C133.849 143.422 132.185 141.467 130.311 139.145L130.228 139.187C130.311 141.09 130.354 142.962 130.354 144.806V156.129H123.855V129.376H129.097L138.154 139.356C139.859 141.227 141.312 142.934 142.515 144.471L142.599 144.428C142.515 142.835 142.472 141.173 142.472 139.439V129.376H148.972V156.422H148.973Z" fill="black"/>
<path d="M169.561 134.701H160.084V140.026H167.884V145.435H160.084V156.128H153.586V129.376H169.561V134.701H169.561Z" fill="black"/>
<path d="M179.414 129.376H172.913V156.128H179.414V129.376Z" fill="black"/>
<path d="M209.564 156.422H206.293L195.893 145.016C194.439 143.422 192.776 141.467 190.901 139.145L190.819 139.187C190.901 141.09 190.945 142.962 190.945 144.806V156.129H184.446V129.376H189.688L198.744 139.356C200.449 141.227 201.903 142.934 203.106 144.471L203.189 144.428C203.106 142.835 203.062 141.173 203.062 139.439V129.376H209.563V156.422H209.564Z" fill="black"/>
<path d="M233.36 133.024C236.141 135.455 237.534 138.699 237.534 142.751C237.534 146.805 236.141 150.047 233.36 152.48C230.578 154.911 227.188 156.128 223.192 156.128H214.176V129.376H223.192C227.188 129.376 230.578 130.591 233.36 133.024ZM228.58 148.517C230.215 147.162 231.032 145.241 231.032 142.751C231.032 140.263 230.214 138.342 228.58 136.986C226.944 135.631 224.897 134.952 222.436 134.952H220.424V150.551H222.436C224.897 150.55 226.944 149.873 228.58 148.517Z" fill="black"/>
<path d="M258.079 156.128H241.306V129.376H256.905V134.701H247.805V140.026H255.227V145.435H247.805V150.803H258.08V156.128H258.079Z" fill="black"/>
<path d="M284.244 156.128H276.989L269.777 145.602H267.472V156.128H261.224V129.376H271.203C273.578 129.376 275.613 130.116 277.305 131.597C278.996 133.08 279.84 135.035 279.84 137.469C279.84 138.977 279.449 140.333 278.666 141.536C277.884 142.737 276.906 143.618 275.731 144.178L284.244 156.128ZM273.593 137.469C273.593 136.518 273.264 135.785 272.607 135.266C271.95 134.749 271.16 134.492 270.239 134.492H267.472V140.488H270.239C271.16 140.488 271.95 140.23 272.607 139.711C273.264 139.195 273.593 138.446 273.593 137.469Z" fill="black"/>
</g>
<defs>
<clipPath id="clip0">
<rect width="284" height="284" fill="white"/>
</clipPath>
</defs>
</svg>
