<svg width="284" height="142" viewBox="0 0 284 142" fill="none" xmlns="http://www.w3.org/2000/svg">
<path d="M31.65 71H21.25V53.5H23.625V68.875H31.65V71ZM35.1936 65.425C35.3436 66.6417 35.7686 67.5917 36.4686 68.275C37.1686 68.9583 38.0936 69.3 39.2436 69.3C39.9936 69.3 40.6686 69.225 41.2686 69.075C41.8686 68.9083 42.4436 68.7 42.9936 68.45L43.5186 70.375C42.9186 70.6583 42.2436 70.8833 41.4936 71.05C40.7436 71.2167 39.9019 71.3 38.9686 71.3C38.0352 71.3 37.1936 71.15 36.4436 70.85C35.6936 70.5333 35.0519 70.0917 34.5186 69.525C34.0019 68.9417 33.6019 68.2333 33.3186 67.4C33.0352 66.55 32.8936 65.5833 32.8936 64.5C32.8936 63.5333 33.0352 62.6333 33.3186 61.8C33.6019 60.9667 34.0019 60.25 34.5186 59.65C35.0352 59.0333 35.6519 58.5583 36.3686 58.225C37.0852 57.875 37.8852 57.7 38.7686 57.7C39.7019 57.7 40.5186 57.8583 41.2186 58.175C41.9186 58.4917 42.5019 58.925 42.9686 59.475C43.4352 60.025 43.7852 60.6667 44.0186 61.4C44.2519 62.1333 44.3686 62.9083 44.3686 63.725C44.3686 64.3083 44.3436 64.875 44.2936 65.425H35.1936ZM38.7186 59.65C37.7352 59.65 36.9269 59.9833 36.2936 60.65C35.6769 61.3167 35.3019 62.3 35.1686 63.6H42.2936C42.2936 62.3333 41.9769 61.3583 41.3436 60.675C40.7102 59.9917 39.8352 59.65 38.7186 59.65ZM46.4922 64.575C46.4922 63.6083 46.6422 62.7083 46.9422 61.875C47.2422 61.025 47.6589 60.2917 48.1922 59.675C48.7422 59.0583 49.3922 58.575 50.1422 58.225C50.9089 57.875 51.7422 57.7 52.6422 57.7C53.3922 57.7 54.0672 57.8333 54.6672 58.1C55.2839 58.35 55.8172 58.6667 56.2672 59.05V58H58.3172V67.85C58.3172 68.4833 58.4672 68.9 58.7672 69.1C59.0839 69.2833 59.4255 69.375 59.7922 69.375L59.3172 71.125C57.7172 71.125 56.7505 70.475 56.4172 69.175C56.2172 69.4417 55.9839 69.7083 55.7172 69.975C55.4672 70.225 55.1755 70.45 54.8422 70.65C54.5089 70.85 54.1339 71.0083 53.7172 71.125C53.3005 71.2417 52.8422 71.3 52.3422 71.3C51.5255 71.3 50.7589 71.1417 50.0422 70.825C49.3422 70.5083 48.7255 70.0583 48.1922 69.475C47.6755 68.8917 47.2589 68.1917 46.9422 67.375C46.6422 66.5417 46.4922 65.6083 46.4922 64.575ZM52.8422 69.3C53.4755 69.3 54.0755 69.15 54.6422 68.85C55.2089 68.55 55.6839 68.1583 56.0672 67.675V60.7C55.6172 60.3833 55.1172 60.1333 54.5672 59.95C54.0339 59.75 53.4672 59.65 52.8672 59.65C52.2672 59.65 51.7172 59.7667 51.2172 60C50.7172 60.2333 50.2839 60.5667 49.9172 61C49.5672 61.4167 49.2922 61.925 49.0922 62.525C48.8922 63.125 48.7922 63.7833 48.7922 64.5C48.7922 65.2 48.8922 65.85 49.0922 66.45C49.2922 67.0333 49.5755 67.5417 49.9422 67.975C50.3089 68.3917 50.7339 68.7167 51.2172 68.95C51.7172 69.1833 52.2589 69.3 52.8422 69.3ZM69.8469 60.175C69.5302 60.0417 69.1552 59.975 68.7219 59.975C68.2552 59.975 67.7969 60.075 67.3469 60.275C66.9135 60.475 66.5219 60.775 66.1719 61.175C65.8385 61.575 65.5635 62.0917 65.3469 62.725C65.1469 63.3417 65.0469 64.075 65.0469 64.925V71H62.7969V58H64.9719V60.825C65.1219 60.425 65.3219 60.0333 65.5719 59.65C65.8219 59.2667 66.1135 58.9333 66.4469 58.65C66.7969 58.3667 67.1969 58.1417 67.6469 57.975C68.0969 57.7917 68.5969 57.7 69.1469 57.7C69.3969 57.7 69.6385 57.7167 69.8719 57.75C70.1219 57.7667 70.3385 57.8 70.5219 57.85L69.8469 60.175ZM74.9572 60.175C75.4239 59.475 76.0156 58.8917 76.7322 58.425C77.4656 57.9417 78.3322 57.7 79.3322 57.7C80.7989 57.7 81.8906 58.1417 82.6072 59.025C83.3406 59.9083 83.7072 61.075 83.7072 62.525V71H81.4572V62.775C81.4572 61.825 81.2406 61.075 80.8072 60.525C80.3739 59.9583 79.7572 59.675 78.9572 59.675C78.5739 59.675 78.1989 59.75 77.8322 59.9C77.4656 60.0333 77.1072 60.225 76.7572 60.475C76.4239 60.725 76.1072 61.0167 75.8072 61.35C75.5239 61.6833 75.2656 62.0333 75.0322 62.4V71H72.7822V58H74.9572V60.175ZM87.8271 53.55C88.6105 53.4667 89.3771 53.4083 90.1271 53.375C90.8771 53.325 91.7355 53.3 92.7021 53.3C94.2021 53.3 95.4938 53.5333 96.5771 54C97.6605 54.4667 98.5605 55.1083 99.2771 55.925C99.9938 56.7417 100.519 57.6917 100.852 58.775C101.202 59.8583 101.377 61.0083 101.377 62.225C101.377 63.4417 101.202 64.6 100.852 65.7C100.502 66.7833 99.9605 67.7333 99.2271 68.55C98.5105 69.3667 97.5855 70.0167 96.4521 70.5C95.3355 70.9667 93.9938 71.2 92.4271 71.2C91.4771 71.2 90.6438 71.175 89.9271 71.125C89.2271 71.0917 88.5271 71.0333 87.8271 70.95V53.55ZM92.6271 55.35C92.1438 55.35 91.7021 55.3667 91.3021 55.4C90.9021 55.4167 90.5355 55.4417 90.2021 55.475V69C90.5521 69.05 90.9188 69.0833 91.3021 69.1C91.6855 69.1167 92.0855 69.125 92.5021 69.125C93.6188 69.125 94.5855 68.9583 95.4021 68.625C96.2188 68.275 96.8855 67.8 97.4021 67.2C97.9355 66.5833 98.3271 65.8583 98.5771 65.025C98.8271 64.175 98.9521 63.2417 98.9521 62.225C98.9521 61.325 98.8271 60.4667 98.5771 59.65C98.3271 58.8167 97.9438 58.0833 97.4271 57.45C96.9105 56.8 96.2521 56.2917 95.4521 55.925C94.6521 55.5417 93.7105 55.35 92.6271 55.35ZM104.893 58H107.143V72.425C107.143 73.1917 107.035 73.85 106.818 74.4C106.601 74.95 106.31 75.4 105.943 75.75C105.576 76.1167 105.143 76.3833 104.643 76.55C104.143 76.7167 103.61 76.8 103.043 76.8C102.026 76.8 101.176 76.6083 100.493 76.225L101.043 74.35C101.26 74.4833 101.526 74.6 101.843 74.7C102.143 74.8 102.451 74.85 102.768 74.85C104.185 74.85 104.893 73.9667 104.893 72.2V58ZM106.018 55.775C105.585 55.775 105.21 55.625 104.893 55.325C104.593 55.0083 104.443 54.6333 104.443 54.2C104.443 53.7167 104.585 53.3333 104.868 53.05C105.151 52.7667 105.535 52.625 106.018 52.625C106.451 52.625 106.818 52.7833 107.118 53.1C107.435 53.4 107.593 53.7667 107.593 54.2C107.593 54.6833 107.451 55.0667 107.168 55.35C106.885 55.6333 106.501 55.775 106.018 55.775ZM110.213 64.575C110.213 63.6083 110.363 62.7083 110.663 61.875C110.963 61.025 111.38 60.2917 111.913 59.675C112.463 59.0583 113.113 58.575 113.863 58.225C114.63 57.875 115.463 57.7 116.363 57.7C117.113 57.7 117.788 57.8333 118.388 58.1C119.005 58.35 119.538 58.6667 119.988 59.05V58H122.038V67.85C122.038 68.4833 122.188 68.9 122.488 69.1C122.805 69.2833 123.146 69.375 123.513 69.375L123.038 71.125C121.438 71.125 120.471 70.475 120.138 69.175C119.938 69.4417 119.705 69.7083 119.438 69.975C119.188 70.225 118.896 70.45 118.563 70.65C118.23 70.85 117.855 71.0083 117.438 71.125C117.021 71.2417 116.563 71.3 116.063 71.3C115.246 71.3 114.48 71.1417 113.763 70.825C113.063 70.5083 112.446 70.0583 111.913 69.475C111.396 68.8917 110.98 68.1917 110.663 67.375C110.363 66.5417 110.213 65.6083 110.213 64.575ZM116.563 69.3C117.196 69.3 117.796 69.15 118.363 68.85C118.93 68.55 119.405 68.1583 119.788 67.675V60.7C119.338 60.3833 118.838 60.1333 118.288 59.95C117.755 59.75 117.188 59.65 116.588 59.65C115.988 59.65 115.438 59.7667 114.938 60C114.438 60.2333 114.005 60.5667 113.638 61C113.288 61.4167 113.013 61.925 112.813 62.525C112.613 63.125 112.513 63.7833 112.513 64.5C112.513 65.2 112.613 65.85 112.813 66.45C113.013 67.0333 113.296 67.5417 113.663 67.975C114.03 68.3917 114.455 68.7167 114.938 68.95C115.438 69.1833 115.98 69.3 116.563 69.3ZM128.693 60.175C129.159 59.475 129.751 58.8917 130.468 58.425C131.201 57.9417 132.068 57.7 133.068 57.7C134.534 57.7 135.626 58.1417 136.343 59.025C137.076 59.9083 137.443 61.075 137.443 62.525V71H135.193V62.775C135.193 61.825 134.976 61.075 134.543 60.525C134.109 59.9583 133.493 59.675 132.693 59.675C132.309 59.675 131.934 59.75 131.568 59.9C131.201 60.0333 130.843 60.225 130.493 60.475C130.159 60.725 129.843 61.0167 129.543 61.35C129.259 61.6833 129.001 62.0333 128.768 62.4V71H126.518V58H128.693V60.175ZM146.463 57.7C147.213 57.7 147.879 57.825 148.463 58.075C149.063 58.325 149.579 58.6333 150.013 59V58H152.063V70.7C152.063 71.7833 151.921 72.7083 151.638 73.475C151.354 74.2417 150.946 74.8667 150.413 75.35C149.896 75.85 149.271 76.2167 148.538 76.45C147.804 76.6833 146.988 76.8 146.088 76.8C145.304 76.8 144.554 76.7083 143.838 76.525C143.121 76.3417 142.479 76.0667 141.913 75.7L142.738 73.75C143.138 74.0667 143.604 74.325 144.138 74.525C144.671 74.7417 145.321 74.85 146.088 74.85C147.271 74.85 148.196 74.5417 148.863 73.925C149.546 73.3083 149.888 72.3083 149.888 70.925V69.325C149.554 69.725 149.071 70.1083 148.438 70.475C147.821 70.825 147.079 71 146.213 71C145.479 71 144.763 70.8583 144.063 70.575C143.363 70.275 142.746 69.85 142.213 69.3C141.679 68.7333 141.246 68.05 140.913 67.25C140.596 66.4333 140.438 65.5 140.438 64.45C140.438 63.4833 140.596 62.5917 140.913 61.775C141.229 60.9417 141.654 60.225 142.188 59.625C142.738 59.025 143.379 58.5583 144.113 58.225C144.846 57.875 145.629 57.7 146.463 57.7ZM146.713 69C147.379 69 147.979 68.85 148.513 68.55C149.046 68.25 149.479 67.9 149.813 67.5V60.7C149.429 60.4333 148.988 60.1917 148.488 59.975C147.988 59.7583 147.388 59.65 146.688 59.65C146.171 59.65 145.671 59.7583 145.188 59.975C144.721 60.175 144.304 60.475 143.938 60.875C143.571 61.275 143.279 61.7667 143.063 62.35C142.846 62.9167 142.738 63.575 142.738 64.325C142.738 65.0417 142.846 65.6917 143.063 66.275C143.279 66.8417 143.571 67.3333 143.938 67.75C144.304 68.15 144.721 68.4583 145.188 68.675C145.671 68.8917 146.179 69 146.713 69ZM165.587 64.5C165.587 63.85 165.478 63.2333 165.262 62.65C165.062 62.0667 164.77 61.5583 164.387 61.125C164.02 60.6917 163.578 60.35 163.062 60.1C162.562 59.8333 162.012 59.7 161.412 59.7C160.095 59.7 159.07 60.1333 158.337 61C157.603 61.8667 157.237 63.0167 157.237 64.45C157.237 65.1 157.337 65.725 157.537 66.325C157.753 66.9083 158.045 67.425 158.412 67.875C158.795 68.3083 159.237 68.6583 159.737 68.925C160.253 69.175 160.812 69.3 161.412 69.3C162.062 69.3 162.645 69.1833 163.162 68.95C163.678 68.7167 164.112 68.3917 164.462 67.975C164.828 67.5417 165.103 67.0333 165.287 66.45C165.487 65.8667 165.587 65.2167 165.587 64.5ZM154.937 64.5C154.937 63.45 155.103 62.5083 155.437 61.675C155.77 60.825 156.22 60.1083 156.787 59.525C157.37 58.9417 158.053 58.4917 158.837 58.175C159.637 57.8583 160.495 57.7 161.412 57.7C162.312 57.7 163.153 57.8583 163.937 58.175C164.737 58.4917 165.428 58.9417 166.012 59.525C166.595 60.1083 167.053 60.8167 167.387 61.65C167.72 62.4833 167.887 63.4167 167.887 64.45C167.887 65.4833 167.72 66.425 167.387 67.275C167.07 68.1083 166.62 68.825 166.037 69.425C165.453 70.025 164.762 70.4917 163.962 70.825C163.178 71.1417 162.328 71.3 161.412 71.3C160.478 71.3 159.612 71.1333 158.812 70.8C158.028 70.4667 157.345 70 156.762 69.4C156.195 68.8 155.745 68.0833 155.412 67.25C155.095 66.4167 154.937 65.5 154.937 64.5Z" fill="black"/>
<path d="M196.724 31H207.2V79.44C201.832 80.46 197.9 80.867 193.6 80.867C180.824 80.867 174.165 75.091 174.165 64.014C174.165 53.344 181.233 46.414 192.173 46.414C193.873 46.414 195.173 46.549 196.726 46.957L196.724 31ZM196.724 55.383C195.501 54.976 194.482 54.84 193.191 54.84C187.891 54.84 184.831 58.102 184.831 63.81C184.831 69.383 187.753 72.44 193.131 72.44C194.286 72.44 195.237 72.372 196.731 72.17L196.724 55.383ZM223.837 47.16V71.42C223.837 79.78 223.225 83.788 221.391 87.253C219.691 90.583 217.449 92.689 212.829 95L203.111 90.38C207.731 88.206 209.974 86.304 211.411 83.38C212.906 80.38 213.381 76.924 213.381 67.82V47.16H223.837ZM213.372 31.056H223.837V41.793H213.372V31.056Z" fill="#092E20"/>
</svg>
